<?xml version="1.0" standalone="no"?>
<!DOCTYPE svg PUBLIC "-//W3C//DTD SVG 20010904//EN"
 "http://www.w3.org/TR/2001/REC-SVG-20010904/DTD/svg10.dtd">
<svg version="1.0" xmlns="http://www.w3.org/2000/svg"
 width="966.000000pt" height="292.000000pt" viewBox="0 0 966.000000 292.000000"
 preserveAspectRatio="xMidYMid meet">
<g transform="translate(0.000000,292.000000) scale(0.100000,-0.100000)"
fill="#0080C0" stroke="none">
<path d="M1275 2843 c-268 -33 -542 -168 -759 -374 -118 -111 -204 -229 -281
-384 -89 -178 -128 -321 -137 -510 l-3 -60 390 0 390 0 3 40 c7 121 68 241
172 345 85 84 162 134 259 167 l66 22 813 1 812 0 0 380 0 380 -847 -1 c-467
-1 -861 -4 -878 -6z"/>
<path d="M3192 2807 l-43 -43 3 -1030 c4 -1132 0 -1059 64 -1186 108 -213 351
-419 562 -473 85 -23 991 -22 1077 0 187 49 392 207 515 397 34 51 71 122 83
158 l22 65 5 1033 5 1033 -45 44 -46 45 -315 0 -315 0 -47 -48 -47 -48 0 -930
0 -930 -33 -32 -33 -32 -290 0 -290 0 -26 27 -27 28 -7 942 -7 942 -43 40 -42
41 -319 0 -319 0 -42 -43z"/>
<path d="M6800 2844 c-316 -48 -561 -173 -790 -403 -232 -233 -363 -505 -389
-809 -5 -59 -7 -110 -4 -114 2 -5 177 -8 388 -8 l384 0 6 48 c32 232 213 441
447 513 56 18 106 19 866 19 l807 0 -3 380 -2 380 -843 -1 c-463 -1 -853 -3
-867 -5z"/>
<path d="M8691 2786 l-41 -64 0 -1264 0 -1263 48 -67 47 -68 316 0 316 0 47
70 46 70 0 1257 0 1258 -47 67 -48 68 -321 0 -321 0 -42 -64z"/>
<path d="M2225 1398 c-2 -7 -9 -42 -15 -77 -34 -195 -194 -380 -400 -464 l-55
-22 -830 -5 -830 -5 -3 -378 -2 -378 892 3 893 3 96 27 c577 163 1001 674
1021 1233 l3 70 -383 3 c-301 2 -383 0 -387 -10z"/>
<path d="M7745 1398 c-2 -7 -9 -41 -15 -75 -33 -192 -188 -373 -394 -462 l-61
-26 -830 -5 -830 -5 -3 -377 -2 -378 859 0 c937 0 914 -1 1101 59 264 85 533
284 698 517 152 213 251 501 240 699 l-3 60 -378 3 c-297 2 -378 0 -382 -10z"/>
</g>
</svg>
