<?xml version="1.0" encoding="UTF-8" standalone="no"?>
<svg
   xmlns:dc="http://purl.org/dc/elements/1.1/"
   xmlns:cc="http://creativecommons.org/ns#"
   xmlns:rdf="http://www.w3.org/1999/02/22-rdf-syntax-ns#"
   xmlns:svg="http://www.w3.org/2000/svg"
   xmlns="http://www.w3.org/2000/svg"
   xmlns:sodipodi="http://sodipodi.sourceforge.net/DTD/sodipodi-0.dtd"
   xmlns:inkscape="http://www.inkscape.org/namespaces/inkscape"
   version="1.0"
   width="1365.2pt"
   height="279.37604pt"
   viewBox="0 0 1365.2 279.37604"
   preserveAspectRatio="xMidYMid meet"
   id="svg2"
   inkscape:version="0.91 r13725"
   sodipodi:docname="SUSI.AI_Letters_Blue_Large.svg">
  <metadata
     id="metadata22">
    <rdf:RDF>
      <cc:Work
         rdf:about="">
        <dc:format>image/svg+xml</dc:format>
        <dc:type
           rdf:resource="http://purl.org/dc/dcmitype/StillImage" />
        <dc:title></dc:title>
      </cc:Work>
    </rdf:RDF>
  </metadata>
  <defs
     id="defs20" />
  <sodipodi:namedview
     pagecolor="#ffffff"
     bordercolor="#666666"
     borderopacity="1"
     objecttolerance="10"
     gridtolerance="10"
     guidetolerance="10"
     inkscape:pageopacity="0"
     inkscape:pageshadow="2"
     inkscape:window-width="1578"
     inkscape:window-height="882"
     id="namedview18"
     showgrid="false"
     fit-margin-top="0"
     fit-margin-left="0"
     fit-margin-right="0"
     fit-margin-bottom="0"
     inkscape:zoom="0.65921325"
     inkscape:cx="944.18041"
     inkscape:cy="175.23464"
     inkscape:window-x="34"
     inkscape:window-y="0"
     inkscape:window-maximized="0"
     inkscape:current-layer="svg2" />
  <path
     style="fill:#0080c0;stroke:none"
     inkscape:connector-curvature="0"
     id="path6"
     d="m 118.5,0.8883161 c -26.8,3.3 -54.2,16.7999999 -75.9,37.3999999 -11.8,11.1 -20.4,22.9 -28.1,38.4 -8.9,17.8 -12.8,32.100004 -13.7,51.000004 l -0.3,6 39,0 39,0 0.3,-4 c 0.7,-12.1 6.8,-24.1 17.2,-34.500004 8.5,-8.4 16.2,-13.4 25.9,-16.7 l 6.6,-2.2 81.3,-0.1 81.2,0 0,-38 0,-37.9999999 -84.7,0.1 c -46.7,0.1 -86.1,0.4 -87.8,0.6 z" />
  <path
     style="fill:#0080c0;stroke:none"
     inkscape:connector-curvature="0"
     id="path8"
     d="m 310.2,4.4883161 -4.3,4.3 0.3,103.0000039 c 0.4,113.2 0,105.9 6.4,118.6 10.8,21.3 35.1,41.9 56.2,47.3 8.5,2.3 99.1,2.2 107.7,0 18.7,-4.9 39.2,-20.7 51.5,-39.7 3.4,-5.1 7.1,-12.2 8.3,-15.8 l 2.2,-6.5 0.5,-103.3 0.5,-103.3000039 -4.5,-4.4 -4.6,-4.5 -31.5,0 -31.5,0 -4.7,4.8 -4.7,4.8 0,93.0000039 0,93 -3.3,3.2 -3.3,3.2 -29,0 -29,0 -2.6,-2.7 -2.7,-2.8 -0.7,-94.2 -0.7,-94.2000039 -4.3,-4 -4.2,-4.1 -31.9,0 -31.9,0 -4.2,4.3 z" />
  <path
     style="fill:#0080c0;stroke:none"
     inkscape:connector-curvature="0"
     id="path10"
     d="m 671,0.7883161 c -31.6,4.8 -56.1,17.2999999 -79,40.2999999 -23.2,23.3 -36.3,50.5 -38.9,80.900004 -0.5,5.9 -0.7,11 -0.4,11.4 0.2,0.5 17.7,0.8 38.8,0.8 l 38.4,0 0.6,-4.8 c 3.2,-23.2 21.3,-44.100004 44.7,-51.300004 5.6,-1.8 10.6,-1.9 86.6,-1.9 l 80.7,0 -0.3,-38 -0.2,-37.9999999 -84.3,0.1 c -46.3,0.1 -85.3,0.3 -86.7,0.5 z" />
  <path
     style="fill:#0080c0;stroke:none"
     inkscape:connector-curvature="0"
     id="path12"
     d="m 860.1,6.5883161 -4.1,6.3999999 0,126.400004 0,126.3 4.8,6.7 4.7,6.8 31.6,0 31.6,0 4.7,-7 4.6,-7 0,-125.7 0,-125.800004 -4.7,-6.6999999 -4.8,-6.8 -32.1,0 -32.1,0 -4.2,6.4 z" />
  <path
     style="fill:#0080c0;stroke:none"
     inkscape:connector-curvature="0"
     id="path14"
     d="m 213.5,145.38832 c -0.2,0.7 -0.9,4.2 -1.5,7.7 -3.4,19.5 -19.4,38 -40,46.4 l -5.5,2.2 -83,0.5 -83,0.5 -0.3,37.8 -0.2,37.8 89.2,-0.3 89.3,-0.3 9.6,-2.7 c 57.7,-16.3 100.1,-67.4 102.1,-123.3 l 0.3,-7 -38.3,-0.3 c -30.1,-0.2 -38.3,0 -38.7,1 z" />
  <path
     style="fill:#0080c0;stroke:none"
     inkscape:connector-curvature="0"
     id="path16"
     d="m 765.5,145.38832 c -0.2,0.7 -0.9,4.1 -1.5,7.5 -3.3,19.2 -18.8,37.3 -39.4,46.2 l -6.1,2.6 -83,0.5 -83,0.5 -0.3,37.7 -0.2,37.8 85.9,0 c 93.7,0 91.4,0.1 110.1,-5.9 26.4,-8.5 53.3,-28.4 69.8,-51.7 15.2,-21.3 25.1,-50.1 24,-69.9 l -0.3,-6 -37.8,-0.3 c -29.7,-0.2 -37.8,0 -38.2,1 z" />
  <path
     inkscape:connector-curvature="0"
     id="path4847"
     d="m 1146.993,0 -1.3782,1.19375 c -0.758,0.65597 -1.8533,1.61162 -2.4328,2.1250001 -0.5795,0.51336 -1.7542,1.53971 -2.6109,2.28125 -1.5165,1.31254 -1.5795,1.40629 -2.4001,3.52656 -0.4636,1.1978599 -0.917,2.3655799 -1.0078,2.5937499 -30.5481,82.930486 -61.6165,165.71805 -96.0335,259.63281 0,0.082 1.6074,1.87519 3.5719,3.98438 l 3.5719,3.83594 33.4706,-0.0438 33.4705,-0.0422 c 12.2824,-35.59865 25.1296,-72.47366 37.3987,-107.27338 0.056,-0.24757 0.2794,-0.64398 0.4969,-0.88125 0.3732,-0.40719 0.6098,-0.43125 4.2016,-0.43125 3.6267,0 3.828,0.0202 4.2782,0.45 0.2598,0.24804 0.4734,0.58841 0.4734,0.75469 3.3681,11.31131 7.2266,22.7346 10.8094,34.88594 0.1361,0.27414 3.9044,0.31776 31.7518,0.36406 29.8686,0.0496 31.6204,0.0328 31.9987,-0.31094 0.2201,-0.20002 1.2308,-1.34433 2.2469,-2.54218 1.016,-1.19787 2.1992,-2.54192 2.6281,-2.98751 0.4289,-0.44557 0.7797,-0.93382 0.7797,-1.08437 -20.8964,-62.93689 -41.1238,-123.639741 -63.6926,-193.0828199 l -3.411,-3.47343 L 1171.7619,0 1159.3774,0 1146.993,0 Z m 54.0191,211.98594 c -20.4678,1.8e-4 -42.1112,0.0618 -48.0956,0.1375 l -10.8798,0.1375 0.098,3.85625 c 0.1076,4.2078 0.4405,7.11411 1.1359,9.92187 0.1201,0.48485 0.3046,1.23157 0.4094,1.65938 0.1048,0.4278 0.2881,1.12688 0.4078,1.55469 0.1198,0.42781 0.3006,1.08235 0.4016,1.45313 0.6231,2.28906 2.0756,6.33679 3.1375,8.74218 3.7097,8.40305 7.0823,13.37167 12.6298,18.60625 4.9356,4.6573 8.5432,7.15716 15.4204,10.68281 4.2383,2.17282 8.681,4.03363 12.6126,5.28281 0.7858,0.24967 1.613,0.52484 1.8375,0.61094 0.2245,0.0861 0.7995,0.26045 1.2766,0.3875 0.4771,0.12708 1.2573,0.33511 1.7344,0.4625 0.4771,0.12732 1.0975,0.30557 1.3781,0.39687 0.2806,0.0912 0.8305,0.2267 1.2234,0.3 0.393,0.0733 1.4504,0.27141 2.3485,0.44219 0.8981,0.17074 2.1827,0.40642 2.8563,0.52344 0.6735,0.11704 1.731,0.30465 2.3484,0.41562 2.3642,0.42483 6.6163,0.93083 10.0673,1.19844 1.3273,0.10291 2.4679,0.24178 2.5344,0.30938 l 0,0.002 c 0.1639,0.16531 58.8347,0.15569 58.8347,-0.0109 -8.7726,-20.44922 -17.462,-41.7915 -26.297,-63.33906 -3.3736,-1.13745 -6.4004,-2.282 -10.2063,-3.73281 l -37.2143,0 z"
     style="fill:#0080c0" />
  <path
     inkscape:connector-curvature="0"
     id="path4199"
     d="m 967.09097,279.18167 c -2.48414,-3.74371 -4.9696,-7.039 -8.09097,-11.76002 l 0.0886,-43.91969 c 3.33602,-5.26277 5.30542,-6.72954 8.42083,-11.51364 17.9098,0.0182 34.29517,0.25816 50.87617,0.25816 3.2079,4.88055 4.0879,6.71871 7.8079,12.66259 -0.045,13.97912 0.1007,27.96138 -0.1178,41.93803 -2.8966,4.19787 -4.2736,7.41955 -7.7779,12.18022 -18.8113,-0.0391 -35.4294,0.2037 -51.20681,0.15435 z"
     style="fill:#0080c0" />
  <path
     d="m 1287.3,6.5883161 -4.1,6.3999999 0,126.400004 0,126.3 4.8,6.7 4.7,6.8 31.6,0 31.6,0 4.7,-7 4.6,-7 0,-125.7 0,-125.800004 -4.7,-6.6999999 -4.8,-6.8 -32.1,0 -32.1,0 -4.2,6.4 z"
     id="path4254"
     inkscape:connector-curvature="0"
     style="fill:#0080c0;stroke:none" />
</svg>
