<?xml version="1.0" encoding="UTF-8" standalone="no"?>
<!-- Created with Inkscape (http://www.inkscape.org/) -->

<svg
   xmlns:dc="http://purl.org/dc/elements/1.1/"
   xmlns:cc="http://creativecommons.org/ns#"
   xmlns:rdf="http://www.w3.org/1999/02/22-rdf-syntax-ns#"
   xmlns:svg="http://www.w3.org/2000/svg"
   xmlns="http://www.w3.org/2000/svg"
   xmlns:sodipodi="http://sodipodi.sourceforge.net/DTD/sodipodi-0.dtd"
   xmlns:inkscape="http://www.inkscape.org/namespaces/inkscape"
   id="svg2"
   viewBox="0 0 500.66 300.26998"
   version="1.0"
   inkscape:version="0.91 r13725"
   sodipodi:docname="cow.svg"
   width="500.66"
   height="300.26999">
  <defs
     id="defs28" />
  <sodipodi:namedview
     pagecolor="#ffffff"
     bordercolor="#666666"
     borderopacity="1"
     objecttolerance="10"
     gridtolerance="10"
     guidetolerance="10"
     inkscape:pageopacity="0"
     inkscape:pageshadow="2"
     inkscape:window-width="1066"
     inkscape:window-height="801"
     id="namedview26"
     showgrid="false"
     inkscape:zoom="0.92814723"
     inkscape:cx="268.55522"
     inkscape:cy="127.135"
     inkscape:window-x="263"
     inkscape:window-y="246"
     inkscape:window-maximized="0"
     inkscape:current-layer="svg2" />
  <path
     inkscape:connector-curvature="0"
     d="m 364.11049,176.1671 c 0.0243,60.49929 -49.02487,109.56067 -109.53633,109.56067 -60.4993,0 -109.54851,-49.06138 -109.53634,-109.56067 -0.0122,-60.51147 49.03704,-109.572846 109.53634,-109.572846 60.51146,0 109.56067,49.061376 109.53633,109.572846 z"
     style="fill:#a05020;fill-opacity:1;stroke:#000000;stroke-width:4.00010824;stroke-linecap:round;stroke-linejoin:round"
     id="path2383" />
  <path
     inkscape:connector-curvature="0"
     d="m 344.38882,116.26517 c -5.4,6.55 -6.24,17.01 -4.56,21.04 1.24,2.98 9.47,4.44 17.35,5.18 -3.09,-9.37 -7.41,-18.18 -12.79,-26.22 z m -193.42,29.39 c -2.86,9.72 -4.41,19.98 -4.4,30.63 0,5.56 0.42,11.03 1.23,16.36 8.18,4.75 18.8,20.39 27.85,21.57 11.34,1.48 8.88,-21.69 1.98,-23.17 -6.91,-1.48 -9.86,-12.33 -10.36,-24.16 -0.33,-7.94 -4.68,-15.67 -16.3,-21.23 z m 211.54,27.73 c -2.92,1.36 -5.63,3.39 -7.89,6.32 -11.83,15.28 -21.69,4.93 -33.53,10.35 -11.83,5.43 -3.94,19.23 0.5,32.54 3.21,9.64 -2.61,28.82 4.4,34.76 22.44,-19.8 36.59,-48.79 36.58,-81.07 0,-0.97 -0.01,-1.93 -0.03,-2.9 -0.01,0.01 -0.03,0 -0.03,0 z m -146.92,9.28 c 4.93,15.28 -5.92,9.86 -7.89,20.21 -1.97,10.36 33.03,13.31 38.95,34.51 5.91,21.2 32.54,9.86 32.04,-1.97 -0.49,-11.83 -17.74,-17.25 -13.31,-24.16 4.44,-6.9 13.31,-21.2 13.31,-21.2 l -63.1,-7.39 z"
     style="fill:#f0b0d0;fill-opacity:1;fill-rule:evenodd"
     id="path3173" />
  <path
     inkscape:connector-curvature="0"
     d="m 262.74882,286.72517 c 0,9.09 14.67,9.38 32.74,9.38 18.07,0 32.73,0.69 32.73,-9.38 0,-17.72 -14.66,-32.1 -32.73,-32.1 -18.07,0 -32.74,14.38 -32.74,32.1 z"
     style="fill:#333333;stroke:#000000;stroke-width:4;stroke-linecap:round;stroke-linejoin:round"
     id="path3172" />
  <path
     inkscape:connector-curvature="0"
     d="m 308.07882,295.50517 c 0,-16.37 -9.44,-26.44 -9.44,-26.44 0,0 3.77,13.85 3.14,26.44 l 6.3,0 z"
     style="fill:#000000;fill-opacity:0.31373004;fill-rule:evenodd;stroke:#000000;stroke-width:4;stroke-linejoin:round"
     id="path3174" />
  <path
     inkscape:connector-curvature="0"
     d="m 251.91882,45.859166 c -30.134,0.61 -50.937,11.653 -63.63,28.75 -24.064,-2.588 -44.062,23.625004 -44.062,23.625004 -5e-4,0 18.891,9.451 32.062,1.531 -2.399,8.71 -3.562,18.11 -3.562,27.91 0,45.17 56.125,81.84 81.842,81.84 26.72,0 81.85,-36.67 81.85,-81.84 0,-9.8 -1.17,-19.2 -3.57,-27.91 13.17,7.92 32.03,-1.531 32.03,-1.531 0,0 -19.97,-26.205004 -44.03,-23.625004 -13.06,-17.595 -34.71,-28.75 -66.28,-28.75 -0.89,0 -1.78,-0.018 -2.65,0 z"
     style="fill:#a05020;fill-opacity:1;stroke:#000000;stroke-width:4;stroke-linecap:round;stroke-linejoin:round"
     id="path3155" />
  <path
     inkscape:connector-curvature="0"
     d="m 268.78882,47.825166 c 25.72,17.92 -3.05,17.14 -8.75,23.28 -6.5,7 -9,17 -1.5,23.5 7.5,6.500004 46,17.500004 51.5,-0.5 2.83,-9.28 -0.57,-20.8 -2.35,-30.97 -10.02,-7.86 -22.9,-13.24 -38.9,-15.31 z"
     style="fill:#f0b0d0;fill-opacity:1;fill-rule:evenodd"
     id="path3185" />
  <path
     inkscape:connector-curvature="0"
     d="m 255.29303,117.99335 c 0.004,10.33031 -8.37055,18.70758 -18.70233,18.70758 -10.32969,0 -18.7044,-8.37727 -18.70232,-18.70758 -0.002,-10.33239 8.37263,-18.70966 18.70232,-18.70966 10.33178,0 18.70648,8.37727 18.70233,18.70966 z"
     style="fill:#ffffff;stroke:#000000;stroke-width:3.30115485;stroke-linecap:round;stroke-linejoin:round"
     id="path3157" />
  <path
     inkscape:connector-curvature="0"
     d="m 301.67358,117.68391 c 0.005,12.51701 -10.14301,22.66757 -22.66254,22.66757 -12.51701,0 -22.66505,-10.15056 -22.66253,-22.66757 -0.003,-12.51953 10.14552,-22.670089 22.66253,-22.670089 12.51953,0 22.66757,10.150559 22.66254,22.670089 z"
     style="fill:#ffffff;stroke:#000000;stroke-width:4.00005579;stroke-linecap:round;stroke-linejoin:round"
     id="path3159" />
  <path
     inkscape:connector-curvature="0"
     d="m 281.53011,119.67771 c 0.002,4.1723 -3.38097,7.55579 -7.55412,7.55579 -4.1723,0 -7.55495,-3.38349 -7.55411,-7.55579 -8.4e-4,-4.17315 3.38181,-7.55664 7.55411,-7.55664 4.17315,0 7.5558,3.38349 7.55412,7.55664 z"
     style="fill:#000000"
     id="path3161" />
  <path
     inkscape:connector-curvature="0"
     d="m 245.50011,119.67771 c 0.002,4.1723 -3.38097,7.55579 -7.55412,7.55579 -4.1723,0 -7.55495,-3.38349 -7.55411,-7.55579 -8.4e-4,-4.17315 3.38181,-7.55664 7.55411,-7.55664 4.17315,0 7.5558,3.38349 7.55412,7.55664 z"
     style="fill:#000000"
     id="path3163" />
  <path
     inkscape:connector-curvature="0"
     d="m 254.56882,159.10517 c -19.861,0 -35.968,13.22 -35.968,29.5 0,3.02 0.565,5.95 1.594,8.69 12.712,7.74 25.394,12.22 34.374,12.22 9.2,0 21.76,-4.33 34.28,-11.88 1.12,-2.84 1.72,-5.88 1.72,-9.03 0,-16.28 -16.14,-29.5 -36,-29.5 z"
     style="fill:#ff5599;stroke:#000000;stroke-width:4;stroke-linecap:round;stroke-linejoin:round"
     id="path3210" />
  <path
     inkscape:connector-curvature="0"
     d="m 247.75882,286.72517 c 0,9.09 -14.67,9.38 -32.74,9.38 -18.07,0 -32.73,0.69 -32.73,-9.38 0,-17.72 14.66,-32.1 32.73,-32.1 18.07,0 32.74,14.38 32.74,32.1 z"
     style="fill:#333333;stroke:#000000;stroke-width:4;stroke-linecap:round;stroke-linejoin:round"
     id="path3329" />
  <path
     inkscape:connector-curvature="0"
     d="m 202.42882,295.50517 c 0,-16.37 9.44,-26.44 9.44,-26.44 0,0 -3.77,13.85 -3.14,26.44 l -6.3,0 z"
     style="fill:#000000;fill-opacity:0.31373004;fill-rule:evenodd;stroke:#000000;stroke-width:4;stroke-linejoin:round"
     id="path3331" />
  <path
     inkscape:connector-curvature="0"
     d="m 271.16882,184.31517 c -2.29,3.97 -6.5,5.84 -9.4,4.16 -2.89,-1.67 -3.38,-6.25 -1.09,-10.22 2.29,-3.97 6.5,-5.84 9.4,-4.16 2.89,1.67 3.38,6.24 1.09,10.22 z"
     style="fill:#000000"
     id="path2398" />
  <path
     inkscape:connector-curvature="0"
     d="m 238.42882,184.31517 c 2.29,3.97 6.5,5.84 9.4,4.16 2.89,-1.67 3.38,-6.25 1.09,-10.22 -2.29,-3.97 -6.5,-5.84 -9.4,-4.16 -2.89,1.67 -3.38,6.24 -1.09,10.22 z"
     style="fill:#000000"
     id="path2412" />
  <path
     inkscape:connector-curvature="0"
     d="m 195.53882,76.115166 c -7.34,-1.33 -15.5,-21.5 -12.5,-25.5 3,-4 26.37,4.46 27,13.5 0.55,7.97 -5.39,13.65 -14.5,12 z"
     style="fill:#333333;fill-rule:evenodd;stroke:#000000;stroke-width:4"
     id="path2399" />
  <path
     inkscape:connector-curvature="0"
     d="m 312.42882,76.115166 c 7.34,-1.33 15.5,-21.5 12.5,-25.5 -3,-4 -26.37,4.46 -27,13.5 -0.55,7.97 5.39,13.65 14.5,12 z"
     style="fill:#333333;fill-rule:evenodd;stroke:#000000;stroke-width:4"
     id="path3171" />
  <metadata
     id="metadata24">
    <rdf:RDF>
      <cc:Work>
        <dc:format>image/svg+xml</dc:format>
        <dc:type
           rdf:resource="http://purl.org/dc/dcmitype/StillImage" />
        <cc:license
           rdf:resource="http://creativecommons.org/publicdomain/zero/1.0/" />
        <dc:publisher>
          <cc:Agent
             rdf:about="http://openclipart.org/">
            <dc:title>Openclipart</dc:title>
          </cc:Agent>
        </dc:publisher>
        <dc:title />
        <dc:date>2008-07-09T15:54:00</dc:date>
        <dc:description>moo</dc:description>
        <dc:source>https://openclipart.org/detail/17676/cartoon-cow-by-lemmling</dc:source>
        <dc:creator>
          <cc:Agent>
            <dc:title>lemmling</dc:title>
          </cc:Agent>
        </dc:creator>
        <dc:subject>
          <rdf:Bag>
            <rdf:li>animal</rdf:li>
            <rdf:li>cartoon</rdf:li>
            <rdf:li>colour</rdf:li>
            <rdf:li>cow</rdf:li>
            <rdf:li>funny</rdf:li>
            <rdf:li>how i did it</rdf:li>
            <rdf:li>mammal</rdf:li>
          </rdf:Bag>
        </dc:subject>
      </cc:Work>
      <cc:License
         rdf:about="http://creativecommons.org/publicdomain/zero/1.0/">
        <cc:permits
           rdf:resource="http://creativecommons.org/ns#Reproduction" />
        <cc:permits
           rdf:resource="http://creativecommons.org/ns#Distribution" />
        <cc:permits
           rdf:resource="http://creativecommons.org/ns#DerivativeWorks" />
      </cc:License>
    </rdf:RDF>
  </metadata>
  <g
     id="g4322"
     transform="matrix(-0.02480899,0,0,0.02622941,326.73662,-0.31390121)"
     style="fill:#ffdd55;fill-opacity:1">
    <path
       inkscape:connector-curvature="0"
       style="fill:#ffdd55;fill-opacity:1;stroke:#000000;stroke-width:291.30548096;stroke-linecap:round;stroke-linejoin:round;stroke-opacity:1"
       id="path9514"
       d="m 3760.0091,1677.6632 c 0,0 134,-37 257,8 0,0 190,77 336,280 0,0 114,160 195,390 0,0 5,21 17,48 l 3,35 c 0,0 -4,18 -20,23 0,0 -84,29 -130,51 l -32,8 c 0,0 -18,-2 -25,-16 l -48,-40 c 0,0 -99,-72 -228,-77 0,0 -128,-6 -236,57 0,0 -121,73 -177,196 0,0 -54,119 -36,258 0,0 17,100 83,188.0001 0,0 66,89 157,132 0,0 37,18 73,26 0,0 46,10 51,41 l 22,115 c 0,0 10,35 -36,55 0,0 -559.9999,188 -825.9999,-34 0,0 -177,-169 -160,-479.0001 0,0 11,-197 116,-514 0,0 67,-178 170,-335 0,0 109,-165 245.9999,-289 0,0 104,-93 228,-127" />
    <path
       inkscape:connector-curvature="0"
       style="fill:#ffdd55;fill-opacity:1;stroke:none;stroke-width:145.65274048;stroke-linecap:round;stroke-linejoin:round;stroke-opacity:1"
       id="path9516"
       d="m 3720.65,2886.5493 c 0,0 14.0165,100.9361 80.0941,188.541 0,0 66.0776,91.4138 162.1907,137.1207 l 52.0612,1.9045 c 0,0 28.0329,-13.3311 40.0471,-45.7069 0,0 96.1129,-323.7573 310.3648,-558.0053 0,0 28.0329,-34.2801 26.0305,-74.2737 0,0 -2.0022,-36.1846 -24.0282,-51.4203 0,0 -92.1083,-49.5158 -200.2353,-55.2292 0,0 -110.1295,-7.6178 -200.2354,36.1847 0,0 -126.1483,57.1337 -192.2259,171.4009 0,0 -68.0802,116.1717 -54.0636,249.4836" />
    <path
       inkscape:connector-curvature="0"
       style="fill:#ffdd55;fill-opacity:1;stroke:#000000;stroke-width:291.30548096;stroke-linecap:round;stroke-linejoin:round;stroke-opacity:1"
       id="path9520"
       d="m 6276.0091,2871.6632 c 0,0 61,14 109,69 0,0 49,54 56,116 0,0 22,165.0001 -15,348.0001 0,0 -33,163 -109,324 0,0 -145,258 -287,393 0,0 -211,200 -440,167 0,0 -141,-21 -266,-139 0,0 -114,-106 -177,-251 0,0 -12,-13 -8,-35 0,0 3,-21 17,-33 l 53,-40 c 0,0 36,-20 67,7 0,0 79,55 176,68 0,0 102,13 187,-25 0,0 98,-39 164,-130 0,0 66,-91 73,-197 0,0 5,-103 -36,-191 0,0 -42,-90 -125,-150 0,0 -80,-53 -176,-65 0,0 -22,-4 -36,-16 0,0 -14,-13 -16,-31.0001 l -27,-110 c 0,0 -3,-42 31,-53 0,0 187,-63 388,-71 0,0 210,-9 397,45" />
    <path
       inkscape:connector-curvature="0"
       style="fill:#ffdd55;fill-opacity:1;stroke:none;stroke-width:145.65274048;stroke-linecap:round;stroke-linejoin:round;stroke-opacity:1"
       id="path9522"
       d="m 5713.1609,3714.1782 c 0,0 -86.4962,84.9518 -180.8555,103.8297 l -186.0979,7.0794 c 0,0 -89.1171,-16.5184 -162.5079,-70.793 0,0 -26.2108,-18.8781 -26.2108,-61.3541 0,0 -2.6211,-44.8356 23.5897,-77.8724 0,0 123.1915,-205.2997 188.7189,-450.7158 0,0 2.6211,-35.3964 41.9375,-66.0734 0,0 39.3165,-30.6772 73.3906,-23.5977 0,0 128.4338,14.1586 243.762,120.3481 0,0 157.2656,162.8241 94.3595,351.6056 0,0 -26.2111,87.3114 -110.0861,167.5436" />
    <path
       inkscape:connector-curvature="0"
       style="fill:#ffdd55;fill-opacity:1;stroke:#000000;stroke-width:291.30548096;stroke-linecap:round;stroke-linejoin:round;stroke-opacity:1"
       id="path9518"
       d="m 5112.9526,2781.5502 c 0,0 108,112 135,274.0001 0,0 26,160 -36,302 0,0 -57,145 -198,236 0,0 -139,91 -295,87 0,0 -144,2 -272,-76 0,0 -126,-78 -198,-209 0,0 -74,-130 -57,-300 0,0 17,-170.0001 115,-283.0001 0,0 74,-103 221,-168 0,0 153,-57 315,-18 0,0 162,38 270,155" />
  </g>
</svg>
