<?xml version="1.0" encoding="UTF-8" standalone="no"?>
<svg
   xmlns:dc="http://purl.org/dc/elements/1.1/"
   xmlns:cc="http://creativecommons.org/ns#"
   xmlns:rdf="http://www.w3.org/1999/02/22-rdf-syntax-ns#"
   xmlns:svg="http://www.w3.org/2000/svg"
   xmlns="http://www.w3.org/2000/svg"
   xmlns:sodipodi="http://sodipodi.sourceforge.net/DTD/sodipodi-0.dtd"
   xmlns:inkscape="http://www.inkscape.org/namespaces/inkscape"
   width="315.75"
   height="315.75"
   id="svg2"
   version="1.1"
   inkscape:version="0.91 r13725"
   sodipodi:docname="efeu.svg">
  <metadata
     id="metadata92">
    <rdf:RDF>
      <cc:Work
         rdf:about="">
        <dc:format>image/svg+xml</dc:format>
        <dc:type
           rdf:resource="http://purl.org/dc/dcmitype/StillImage" />
        <dc:title></dc:title>
      </cc:Work>
    </rdf:RDF>
  </metadata>
  <defs
     id="defs90" />
  <sodipodi:namedview
     pagecolor="#ffffff"
     bordercolor="#666666"
     borderopacity="1"
     objecttolerance="10"
     gridtolerance="10"
     guidetolerance="10"
     inkscape:pageopacity="0"
     inkscape:pageshadow="2"
     inkscape:window-width="640"
     inkscape:window-height="480"
     id="namedview88"
     showgrid="false"
     inkscape:zoom="0.74742676"
     inkscape:cx="157.875"
     inkscape:cy="157.875"
     inkscape:window-x="107"
     inkscape:window-y="22"
     inkscape:window-maximized="0"
     inkscape:current-layer="svg2" />
  <g
     id="g36"
     transform="translate(-217.125,-92.125)">
    <g
       id="g38">
      <path
         inkscape:connector-curvature="0"
         id="path40"
         d="m 285.3,361.56 c 2.42,1.82 9.79,6.26 20.4,6.26 22.82,0 25.55,-14.14 54.53,-14.14 22.93,0 43.63,18.48 53.52,27.87 l -6.26,5.45 c -3.63,-5.05 -23.83,-29.28 -44.23,-29.28 -13.02,0 -22.92,19.19 -46.45,19.19 -17.87,0 -27.57,-9.89 -31.51,-15.35 z" />
      <path
         inkscape:connector-curvature="0"
         id="path42"
         d="m 342.28,353.74 c -10.2,-0.25 -25.04,7.89 -39.98,7.57 -11.92,-0.25 -33.12,-6.41 -41.05,-24.69 4.8,5.35 11.74,12.55 33.17,12.72 13.02,0.1 24.94,3.64 29.23,3.64 -5.91,-1.51 -12.54,-3.82 -17.87,-8.94 -5,-4.8 -10.45,-20.55 -14.54,-25.3 7.42,3.23 21.76,19.69 27.52,24.54 9.42,7.94 13.83,8.08 23.52,10.46 z" />
      <path
         inkscape:connector-curvature="0"
         id="path44"
         d="m 304.72,346.82 c -10.2,-2.02 -30.97,-5.69 -35.95,-8.89 -8.18,-5.25 -25.85,-15.04 -29.08,-37.16 3.33,8.28 13.33,17.57 27.47,23.13 12.88,5.06 18.38,12.01 25.75,16.16 -5.75,-4.34 -9.7,-9.39 -12.72,-14.74 -5.19,-9.17 -4.44,-31.2 -9.49,-37.56 8.28,7.57 15.26,22.85 17.27,28.78 4.13,12.21 8.37,25.53 16.75,30.28 z" />
      <path
         inkscape:connector-curvature="0"
         id="path46"
         d="m 276.75,324.71 c -5.76,-5.96 -28.18,-16.66 -33.53,-24.64 -5.42,-8.07 -15.15,-15.55 -12.52,-39.28 0.49,8.91 6.08,17.38 17.17,27.77 8.08,7.57 12.91,18.53 18.56,24.83 -4.05,-5.96 -6.82,-12.93 -7.96,-18.97 -1.96,-10.35 5.96,-28.2 3.23,-35.85 5.4,9.83 6.88,26.05 6.87,32.31 -0.02,12.9 3.63,28.07 8.18,33.83 z" />
      <path
         inkscape:connector-curvature="0"
         id="path48"
         d="m 254.83,291.28 c -5.35,-10.4 -19.89,-22.72 -22.21,-35.04 -1.8,-9.55 -5.05,-19.9 2.12,-37.26 -1.52,8.58 0.04,18.37 6.67,30.8 6.56,12.32 5.35,22.52 8.18,27.11 -1.48,-7.06 -1.4,-14.55 -0.16,-20.58 2.12,-10.32 13.99,-20.17 14.8,-30.87 1.21,10.2 -2.31,25.48 -4.34,31.4 -4.65,13.54 -6.97,19.99 -5.06,34.44 z" />
      <path
         inkscape:connector-curvature="0"
         id="path50"
         d="m 246.96,254.21 c -1.31,-12.72 -10.2,-27.87 -9.7,-40.19 0.39,-9.71 0.88,-18.26 13.13,-32.52 -4.54,8.18 -4.44,14.88 -2.83,28.88 1.52,13.13 -1.35,23.53 -0.1,28.78 0.5,-10.3 2.72,-15.11 6.46,-19.99 6.97,-9.09 16.76,-12.92 19.09,-20.4 -0.21,8.18 -5.91,19.95 -9.7,24.94 -8.64,11.4 -14.94,16.77 -16.35,30.5 z" />
      <path
         inkscape:connector-curvature="0"
         id="path52"
         d="m 250.64,219.4 c 2.66,-12.51 -2.01,-24.75 1.37,-34.66 2.82,-8.28 6.86,-16.76 20.7,-21.01 -4.24,2.33 -9.88,10.18 -10.5,15.86 -1.61,14.64 -6.54,20.98 -6.97,26.36 3.23,-8.89 8.47,-13.27 13.53,-16.77 9.42,-6.51 14.34,-10.7 17.27,-17.26 -0.3,8.38 -5.35,18.88 -12.42,24.03 -11.56,8.42 -20.2,16.46 -22.98,23.45 z" />
      <path
         inkscape:connector-curvature="0"
         id="path54"
         d="m 300.78,150 c -4.75,2.32 -19.09,6.26 -25.55,13.83 -8.65,10.13 -8.49,19.19 -11.61,24.84 5.35,-4.34 15.55,-11.71 18.98,-16.87 3.44,-5.14 9.39,-14.63 18.18,-21.8 z" />
    </g>
    <g
       id="g56">
      <path
         inkscape:connector-curvature="0"
         id="path58"
         d="m 464.7,361.56 c -2.42,1.82 -9.79,6.26 -20.4,6.26 -22.82,0 -25.55,-14.14 -54.53,-14.14 -22.93,0 -43.63,18.48 -53.52,27.87 l 6.26,5.45 c 3.63,-5.05 23.83,-29.28 44.23,-29.28 13.02,0 22.92,19.19 46.45,19.19 17.87,0 27.57,-9.89 31.51,-15.35 z" />
      <path
         inkscape:connector-curvature="0"
         id="path60"
         d="m 407.72,353.74 c 10.2,-0.25 25.04,7.89 39.98,7.57 11.92,-0.25 33.12,-6.41 41.05,-24.69 -4.8,5.35 -11.74,12.55 -33.17,12.72 -13.02,0.1 -24.94,3.64 -29.23,3.64 5.91,-1.51 12.54,-3.82 17.87,-8.94 5,-4.8 10.45,-20.55 14.54,-25.3 -7.42,3.23 -21.76,19.69 -27.52,24.54 -9.42,7.94 -13.83,8.08 -23.52,10.46 z" />
      <path
         inkscape:connector-curvature="0"
         id="path62"
         d="m 445.28,346.82 c 10.2,-2.02 30.97,-5.69 35.95,-8.89 8.18,-5.25 25.85,-15.04 29.08,-37.16 -3.33,8.28 -13.33,17.57 -27.47,23.13 -12.88,5.06 -18.38,12.01 -25.75,16.16 5.75,-4.34 9.7,-9.39 12.72,-14.74 5.19,-9.17 4.44,-31.2 9.49,-37.56 -8.28,7.57 -15.26,22.85 -17.27,28.78 -4.13,12.21 -8.37,25.53 -16.75,30.28 z" />
      <path
         inkscape:connector-curvature="0"
         id="path64"
         d="m 473.25,324.71 c 5.76,-5.96 28.18,-16.66 33.53,-24.64 5.42,-8.07 15.15,-15.55 12.52,-39.28 -0.49,8.91 -6.08,17.38 -17.17,27.77 -8.08,7.57 -12.91,18.53 -18.56,24.83 4.05,-5.96 6.82,-12.93 7.96,-18.97 1.96,-10.35 -5.96,-28.2 -3.23,-35.85 -5.4,9.83 -6.88,26.05 -6.87,32.31 0.02,12.9 -3.63,28.07 -8.18,33.83 z" />
      <path
         inkscape:connector-curvature="0"
         id="path66"
         d="m 495.17,291.28 c 5.35,-10.4 19.89,-22.72 22.21,-35.04 1.8,-9.55 5.05,-19.9 -2.12,-37.26 1.52,8.58 -0.04,18.37 -6.67,30.8 -6.56,12.32 -5.35,22.52 -8.18,27.11 1.48,-7.06 1.4,-14.55 0.16,-20.58 -2.12,-10.32 -13.99,-20.17 -14.8,-30.87 -1.21,10.2 2.31,25.48 4.34,31.4 4.65,13.54 6.97,19.99 5.06,34.44 z" />
      <path
         inkscape:connector-curvature="0"
         id="path68"
         d="m 503.04,254.21 c 1.31,-12.72 10.2,-27.87 9.7,-40.19 -0.39,-9.71 -0.88,-18.26 -13.13,-32.52 4.54,8.18 4.44,14.88 2.83,28.88 -1.52,13.13 1.35,23.53 0.1,28.78 -0.5,-10.3 -2.72,-15.11 -6.46,-19.99 -6.97,-9.09 -16.76,-12.92 -19.09,-20.4 0.21,8.18 5.91,19.95 9.7,24.94 8.64,11.4 14.94,16.77 16.35,30.5 z" />
      <path
         inkscape:connector-curvature="0"
         id="path70"
         d="m 499.36,219.4 c -2.66,-12.51 2.01,-24.75 -1.37,-34.66 -2.82,-8.28 -6.86,-16.76 -20.7,-21.01 4.24,2.33 9.88,10.18 10.5,15.86 1.61,14.64 6.54,20.98 6.97,26.36 -3.23,-8.89 -8.47,-13.27 -13.53,-16.77 -9.42,-6.51 -14.34,-10.7 -17.27,-17.26 0.3,8.38 5.35,18.88 12.42,24.03 11.56,8.42 20.2,16.46 22.98,23.45 z" />
      <path
         inkscape:connector-curvature="0"
         id="path72"
         d="m 449.22,150 c 4.75,2.32 19.09,6.26 25.55,13.83 8.65,10.13 8.49,19.19 11.61,24.84 -5.35,-4.34 -15.55,-11.71 -18.98,-16.87 -3.44,-5.14 -9.39,-14.63 -18.18,-21.8 z" />
    </g>
  </g>
</svg>
