<?xml version="1.0" encoding="UTF-8" standalone="no"?>
<!-- Created with Inkscape (http://www.inkscape.org/) -->

<svg
   xmlns:dc="http://purl.org/dc/elements/1.1/"
   xmlns:cc="http://creativecommons.org/ns#"
   xmlns:rdf="http://www.w3.org/1999/02/22-rdf-syntax-ns#"
   xmlns:svg="http://www.w3.org/2000/svg"
   xmlns="http://www.w3.org/2000/svg"
   xmlns:sodipodi="http://sodipodi.sourceforge.net/DTD/sodipodi-0.dtd"
   xmlns:inkscape="http://www.inkscape.org/namespaces/inkscape"
   id="svg4087"
   version="1.1"
   inkscape:version="0.91 r13725"
   xml:space="preserve"
   width="708.66138"
   height="708.66138"
   viewBox="0 0 708.66138 708.66138"
   sodipodi:docname="loklak_background_yellow.svg"><metadata
     id="metadata4093"><rdf:RDF><cc:Work
         rdf:about=""><dc:format>image/svg+xml</dc:format><dc:type
           rdf:resource="http://purl.org/dc/dcmitype/StillImage" /><dc:title></dc:title></cc:Work></rdf:RDF></metadata><defs
     id="defs4091"><clipPath
       clipPathUnits="userSpaceOnUse"
       id="clipPath4103"><path
         d="m 0,70 566.9291,0 0,427 L 0,497 0,70 Z"
         id="path4105"
         inkscape:connector-curvature="0" /></clipPath></defs><sodipodi:namedview
     pagecolor="#ffffff"
     bordercolor="#666666"
     borderopacity="1"
     objecttolerance="10"
     gridtolerance="10"
     guidetolerance="10"
     inkscape:pageopacity="0"
     inkscape:pageshadow="2"
     inkscape:window-width="727"
     inkscape:window-height="480"
     id="namedview4089"
     showgrid="false"
     inkscape:zoom="0.33302224"
     inkscape:cx="354.33069"
     inkscape:cy="354.33069"
     inkscape:window-x="125"
     inkscape:window-y="0"
     inkscape:window-maximized="0"
     inkscape:current-layer="g4095" /><g
     id="g4095"
     inkscape:groupmode="layer"
     inkscape:label="loklak_background_yellow"
     transform="matrix(1.25,0,0,-1.25,0,708.66137)"><g
       id="g4097" /><g
       id="g4099"><g
         id="g4101"
         clip-path="url(#clipPath4103)"><path
           d="m 0,497 567.0709,0 0,-427.80655 L 0,69.19345 0,497 Z"
           style="fill:#ffffff;fill-opacity:1;fill-rule:nonzero;stroke:none"
           id="path4107"
           inkscape:connector-curvature="0" /><path
           d="m 0,497 567.0709,0 0,-426.80231 L 0,70.19769 0,497 Z"
           style="fill:#ff9300;fill-opacity:1;fill-rule:nonzero;stroke:none"
           id="path4109"
           inkscape:connector-curvature="0" /><path
           d="M 283.5793,283.55 255.0545,497 l -59.1684,0 87.6932,-213.45 z"
           style="fill:#fffb00;fill-opacity:1;fill-rule:nonzero;stroke:none"
           id="path4111"
           inkscape:connector-curvature="0" /><path
           d="M 283.8691,283.1873 0,400.955 0,321.106 283.8691,283.1873 Z"
           style="fill:#fffb00;fill-opacity:1;fill-rule:nonzero;stroke:none"
           id="path4113"
           inkscape:connector-curvature="0" /><path
           d="M 283.8691,283.1873 119.3984,497 7.224197,497 283.8691,283.1873 Z"
           style="fill:#fffb00;fill-opacity:1;fill-rule:nonzero;stroke:none"
           id="path4115"
           inkscape:connector-curvature="0" /><path
           d="M 283.5977,283.55 312.1225,497 371.2909,497 283.5977,283.55 Z"
           style="fill:#fffb00;fill-opacity:1;fill-rule:nonzero;stroke:none"
           id="path4117"
           inkscape:connector-curvature="0" /><path
           d="m 283.3079,283.1873 283.763,117.7677 0,-79.849 -283.763,-37.9187 z"
           style="fill:#fffb00;fill-opacity:1;fill-rule:nonzero;stroke:none"
           id="path4119"
           inkscape:connector-curvature="0" /><path
           d="M 283.3079,283.1873 447.7786,497 559.9528,497 283.3079,283.1873 Z"
           style="fill:#fffb00;fill-opacity:1;fill-rule:nonzero;stroke:none"
           id="path4121"
           inkscape:connector-curvature="0" /><path
           d="M 283.4908,283.3002 254.966,70.19769 l -59.1684,0 87.6932,213.10251 z"
           style="fill:#fffb00;fill-opacity:1;fill-rule:nonzero;stroke:none"
           id="path4123"
           inkscape:connector-curvature="0" /><path
           d="M 283.7806,283.6629 0,165.8952 l 0,79.8489 283.7806,37.9188 z"
           style="fill:#fffb00;fill-opacity:1;fill-rule:nonzero;stroke:none"
           id="path4125"
           inkscape:connector-curvature="0" /><path
           d="M 283.7806,283.6629 119.3099,69.19345 7.135711,69.19345 283.7806,283.6629 Z"
           style="fill:#fffb00;fill-opacity:1;fill-rule:nonzero;stroke:none"
           id="path4127"
           inkscape:connector-curvature="0" /><path
           d="m 283.5092,283.3002 28.5248,-213.10251 59.1684,0 -87.6932,213.10251 z"
           style="fill:#fffb00;fill-opacity:1;fill-rule:nonzero;stroke:none"
           id="path4129"
           inkscape:connector-curvature="0" /><path
           d="m 283.2194,283.6629 283.8515,-117.7677 0,79.8489 -283.8515,37.9188 z"
           style="fill:#fffb00;fill-opacity:1;fill-rule:nonzero;stroke:none"
           id="path4131"
           inkscape:connector-curvature="0" /><path
           d="m 283.2194,283.6629 164.4707,-214.46945 112.1742,0 -276.6449,214.46945 z"
           style="fill:#fffb00;fill-opacity:1;fill-rule:nonzero;stroke:none"
           id="path4133"
           inkscape:connector-curvature="0" /><path
           d="m 0,497 71.00887,0 0,-426.80231 L 0,70.19769 0,497 Z"
           style="fill:#ffffff;fill-opacity:1;fill-rule:nonzero;stroke:none"
           id="path4135"
           inkscape:connector-curvature="0" /><path
           d="m 496.062,497 71.0089,0 0,-426.80231 -71.0089,0 0,426.80231 z"
           style="fill:#ffffff;fill-opacity:1;fill-rule:nonzero;stroke:none"
           id="path4137"
           inkscape:connector-curvature="0" /></g></g></g></svg>